<?xml version="1.0" encoding="UTF-8"?>
<svg version="1.1" xmlns="http://www.w3.org/2000/svg" width="400" height="400">
<path d="M0 0 C1.96597829 1.1657276 3.86882759 2.396706 5.76855469 3.66748047 C7.18623596 4.58459167 8.60420847 5.50125282 10.02246094 6.41748047 C10.72000488 6.87380859 11.41754883 7.33013672 12.13623047 7.80029297 C14.96415006 9.63833752 17.83062767 11.4045487 20.70605469 13.16748047 C21.75148437 13.80943359 22.79691406 14.45138672 23.87402344 15.11279297 C29.94339034 18.81097352 36.04337385 22.45793046 42.14355469 26.10498047 C50.40488518 31.04409396 58.64174269 36.015626 66.83105469 41.07373047 C71.04740034 43.65922544 75.29072475 46.19813996 79.53564453 48.73632812 C84.83065891 51.90674032 90.08970609 55.13275347 95.33886719 58.37841797 C96.26441406 58.94818359 97.18996094 59.51794922 98.14355469 60.10498047 C98.96597656 60.69537109 99.78839844 61.28576172 100.63574219 61.89404297 C103.98466939 63.5111262 105.60882875 63.16222199 109.14355469 62.10498047 C112.06967045 60.51117061 112.06967045 60.51117061 114.83105469 58.54248047 C119.83168346 55.10498047 119.83168346 55.10498047 123.14355469 55.10498047 C123.14355469 54.44498047 123.14355469 53.78498047 123.14355469 53.10498047 C123.93644897 52.67016357 123.93644897 52.67016357 124.74536133 52.2265625 C130.75260602 48.9130763 136.67758445 45.47445143 142.58105469 41.97998047 C143.53246338 41.42028564 144.48387207 40.86059082 145.46411133 40.28393555 C150.13220538 37.52758532 154.76449772 34.7339387 159.33105469 31.81201172 C160.13486572 31.30234863 160.93867676 30.79268555 161.7668457 30.26757812 C163.26816316 29.31062485 164.76145978 28.34092425 166.24487305 27.35644531 C170.69706761 24.52963829 173.70870716 23.47840657 179.14355469 24.10498047 C181.08105469 25.16748047 181.08105469 25.16748047 182.14355469 27.10498047 C182.57324219 30.44091797 182.57324219 30.44091797 182.14355469 34.10498047 C179.68652344 36.54638672 179.68652344 36.54638672 176.33105469 38.66748047 C175.73719971 39.0504126 175.14334473 39.43334473 174.53149414 39.82788086 C170.19469564 42.58354886 165.71308202 45.05600055 161.16308594 47.44091797 C157.35371508 49.54026077 153.69340965 51.84278878 150.01855469 54.16748047 C145.22942778 57.19496819 140.43779064 60.12309164 135.44824219 62.81201172 C130.24364393 65.73187955 125.20812393 68.95038788 120.14355469 72.10498047 C122.90499824 75.070503 125.542852 77.08373977 129.08105469 79.04248047 C135.17174428 82.53800667 141.24332774 86.05991227 147.26855469 89.66748047 C148.20562256 90.20945068 149.14269043 90.7514209 150.1081543 91.30981445 C156.72199687 95.30450517 156.72199687 95.30450517 158.84277344 99.33154297 C159.22934915 102.8960723 158.29907201 104.31079135 156.14355469 107.10498047 C155.81355469 107.43498047 155.48355469 107.76498047 155.14355469 108.10498047 C148.64615993 107.87566065 144.3608153 105.21204734 138.95605469 101.79248047 C137.19182983 100.70638367 135.42750377 99.62045124 133.66308594 98.53466797 C132.75896973 97.97231445 131.85485352 97.40996094 130.92333984 96.83056641 C126.35067699 93.99202952 121.74927035 91.20194712 117.14355469 88.41748047 C116.30155518 87.90080811 115.45955566 87.38413574 114.59204102 86.85180664 C113.80466553 86.37461182 113.01729004 85.89741699 112.20605469 85.40576172 C111.51640625 84.98464111 110.82675781 84.56352051 110.11621094 84.12963867 C108.06735585 83.06540045 106.4346034 82.40509045 104.14355469 82.10498047 C101.52581909 83.31706055 99.16851559 84.568044 96.70605469 86.04248047 C96.00029297 86.45272461 95.29453125 86.86296875 94.56738281 87.28564453 C92.4163724 88.54314342 90.27805489 89.81968465 88.14355469 91.10498047 C87.52077637 91.47961426 86.89799805 91.85424805 86.25634766 92.24023438 C81.68693939 95.00251781 77.14424989 97.80484416 72.66699219 100.71435547 C67.42866705 104.10498047 67.42866705 104.10498047 64.14355469 104.10498047 C64.14355469 104.76498047 64.14355469 105.42498047 64.14355469 106.10498047 C63.52351563 106.43369141 62.90347656 106.76240234 62.26464844 107.10107422 C50.71881142 113.30255 39.5964655 120.19517612 28.44824219 127.07763672 C21.7421149 131.19167935 14.9801494 135.21337721 8.22753906 139.25048828 C0.43638792 143.91005825 -7.33030568 148.60408497 -15.05175781 153.37841797 C-15.97730469 153.94818359 -16.90285156 154.51794922 -17.85644531 155.10498047 C-18.72398437 155.67087891 -19.59152344 156.23677734 -20.48535156 156.81982422 C-23.68230627 158.55260527 -26.28217998 158.31523137 -29.85644531 158.10498047 C-29.85644531 157.44498047 -29.85644531 156.78498047 -29.85644531 156.10498047 C-30.51644531 156.10498047 -31.17644531 156.10498047 -31.85644531 156.10498047 C-33.06345927 150.79411905 -33.06345927 150.79411905 -32.26269531 148.12841797 C-30.24494253 145.22509591 -27.83904432 144.14350158 -24.73144531 142.47998047 C-18.34136523 138.99985754 -12.19357709 135.23139228 -6.10009766 131.25488281 C-1.17922548 128.10498047 -1.17922548 128.10498047 2.14355469 128.10498047 C2.14355469 127.44498047 2.14355469 126.78498047 2.14355469 126.10498047 C3.55683598 125.28660605 4.97433814 124.47551828 6.39355469 123.66748047 C7.18246094 123.21501953 7.97136719 122.76255859 8.78417969 122.29638672 C10.93188936 121.21186445 12.7956053 120.57349331 15.14355469 120.10498047 C15.14355469 119.44498047 15.14355469 118.78498047 15.14355469 118.10498047 C15.70558594 117.81107422 16.26761719 117.51716797 16.84667969 117.21435547 C31.64085945 109.31807547 45.85553834 100.34260465 60.07666016 91.4699707 C62.42699942 90.00613061 64.78252641 88.55150762 67.14355469 87.10498047 C67.8207959 86.68861328 68.49803711 86.27224609 69.19580078 85.84326172 C73.78482388 83.10498047 73.78482388 83.10498047 77.14355469 83.10498047 C77.14355469 82.44498047 77.14355469 81.78498047 77.14355469 81.10498047 C78.13355469 81.10498047 79.12355469 81.10498047 80.14355469 81.10498047 C80.14355469 80.44498047 80.14355469 79.78498047 80.14355469 79.10498047 C81.10068359 78.59837891 81.10068359 78.59837891 82.07714844 78.08154297 C82.9034375 77.63552734 83.72972656 77.18951172 84.58105469 76.72998047 C85.40476562 76.28912109 86.22847656 75.84826172 87.07714844 75.39404297 C89.27822046 74.27079488 89.27822046 74.27079488 90.14355469 72.10498047 C80.93971857 66.45818247 71.72177786 60.83725694 62.45605469 55.29248047 C55.3343685 51.02929463 48.23146167 46.73659725 41.14355469 42.41748047 C40.20447266 41.84529785 39.26539063 41.27311523 38.29785156 40.68359375 C36.31588083 39.47580965 34.33394844 38.26796261 32.35205078 37.06005859 C26.99684902 33.79689806 21.64054165 30.5355681 16.28198242 27.27792358 C15.0877215 26.55163043 13.89370108 25.82494161 12.69995117 25.09780884 C11.01120939 24.06921649 9.32152971 23.04216448 7.63183594 22.01513672 C6.56143066 21.36432129 5.49102539 20.71350586 4.38818359 20.04296875 C2.15131848 18.70690891 -0.08742112 17.39727826 -2.35498047 16.11621094 C-3.45503418 15.49246582 -4.55508789 14.8687207 -5.68847656 14.22607422 C-6.68210205 13.67234131 -7.67572754 13.1186084 -8.69946289 12.5480957 C-9.41126709 12.07186768 -10.12307129 11.59563965 -10.85644531 11.10498047 C-10.85644531 10.44498047 -10.85644531 9.78498047 -10.85644531 9.10498047 C-11.51644531 9.10498047 -12.17644531 9.10498047 -12.85644531 9.10498047 C-13.7103861 6.11618771 -13.93345457 4.38734776 -13.10644531 1.35498047 C-10.37580317 -3.56017539 -4.43005982 -2.13579686 0 0 Z " fill="#3EABB8" transform="translate(200.8564453125,190.89501953125)"/>
<path d="M0 0 C2 2 2 2 2 5 C1.67 5.66 1.34 6.32 1 7 C2.485 7.99 2.485 7.99 4 9 C4 10.32 4 11.64 4 13 C1.45572762 14.79165528 -0.96669817 16.27500559 -3.6875 17.75 C-5.24690484 18.62616214 -6.80548997 19.50378469 -8.36328125 20.3828125 C-9.53431396 21.03685059 -9.53431396 21.03685059 -10.72900391 21.70410156 C-15.06919308 24.18074359 -19.25397957 26.90697932 -23.4609375 29.6015625 C-26 31 -26 31 -29 31 C-29 31.66 -29 32.32 -29 33 C-29.93005859 33.49306641 -29.93005859 33.49306641 -30.87890625 33.99609375 C-42.42474327 40.19756953 -53.54708919 47.09019565 -64.6953125 53.97265625 C-71.40143979 58.08669888 -78.16340529 62.10839674 -84.91601562 66.14550781 C-92.70716677 70.80507778 -100.47386037 75.4991045 -108.1953125 80.2734375 C-109.12085938 80.84320313 -110.04640625 81.41296875 -111 82 C-111.86753906 82.56589844 -112.73507813 83.13179688 -113.62890625 83.71484375 C-116.82586096 85.4476248 -119.42573466 85.2102509 -123 85 C-123 84.34 -123 83.68 -123 83 C-123.66 83 -124.32 83 -125 83 C-126.20701396 77.68913858 -126.20701396 77.68913858 -125.40625 75.0234375 C-123.38849721 72.12011544 -120.982599 71.03852111 -117.875 69.375 C-111.48491991 65.89487707 -105.33713177 62.12641181 -99.24365234 58.14990234 C-94.32278017 55 -94.32278017 55 -91 55 C-91 54.34 -91 53.68 -91 53 C-89.58671871 52.18162558 -88.16921654 51.37053781 -86.75 50.5625 C-85.96109375 50.11003906 -85.1721875 49.65757812 -84.359375 49.19140625 C-82.21166532 48.10688398 -80.34794939 47.46851284 -78 47 C-78 46.34 -78 45.68 -78 45 C-77.43796875 44.70609375 -76.8759375 44.4121875 -76.296875 44.109375 C-61.50269524 36.21309501 -47.28801635 27.23762418 -33.06689453 18.36499023 C-30.71655527 16.90115014 -28.36102828 15.44652715 -26 14 C-25.32275879 13.58363281 -24.64551758 13.16726563 -23.94775391 12.73828125 C-19.35873081 10 -19.35873081 10 -16 10 C-16 9.34 -16 8.68 -16 8 C-15.01 8 -14.02 8 -13 8 C-13 7.34 -13 6.68 -13 6 C-9.66935437 4.25898069 -6.64211065 2.87913016 -3 2 C-2.01 1.34 -1.02 0.68 0 0 Z " fill="#39A0AF" transform="translate(294,264)"/>
<path d="M0 0 C2 2 2 2 2.1953125 3.9453125 C2.13020833 5.96354167 2.06510417 7.98177083 2 10 C1.34 10 0.68 10 0 10 C0 10.66 0 11.32 0 12 C-3 14 -3 14 -6 14 C-6 14.66 -6 15.32 -6 16 C-6.68964844 16.36351562 -7.37929688 16.72703125 -8.08984375 17.1015625 C-9.02957031 17.60429687 -9.96929687 18.10703125 -10.9375 18.625 C-11.85402344 19.11226562 -12.77054687 19.59953125 -13.71484375 20.1015625 C-16.46141493 21.68876059 -19.0734636 23.35290873 -21.70532227 25.11865234 C-22.51099136 25.65839691 -23.31666046 26.19814148 -24.14674377 26.75424194 C-24.75831833 27.1653421 -25.36989288 27.57644226 -26 28 C-25.30731018 28.00808685 -24.61462036 28.01617371 -23.90093994 28.02450562 C-16.69842002 28.11049065 -9.49617723 28.20999192 -2.29394531 28.31738281 C0.3948189 28.35678011 3.0835815 28.39136788 5.77246094 28.421875 C9.63495331 28.46748377 13.49708997 28.52548615 17.359375 28.5859375 C19.16580475 28.60326431 19.16580475 28.60326431 21.00872803 28.62094116 C22.12958801 28.64081085 23.250448 28.66068054 24.40527344 28.68115234 C25.88420074 28.70113785 25.88420074 28.70113785 27.39300537 28.7215271 C30.1146152 29.01224292 31.75705714 29.43681326 34 31 C34.97664591 34.51592526 35.55431702 36.82710984 33.96299744 40.19421387 C31.10832435 42.82026369 28.34176438 42.56005017 24.65454102 42.51757812 C23.90950317 42.5245874 23.16446533 42.53159668 22.39685059 42.53881836 C19.93215745 42.55643429 17.46861122 42.54476256 15.00390625 42.53125 C13.2914152 42.53394419 11.57892563 42.537826 9.86643982 42.54284668 C6.27596483 42.54874681 2.68588774 42.54016353 -0.90454102 42.52148438 C-5.50610048 42.49871142 -10.10672593 42.51180368 -14.708251 42.53577423 C-18.24533618 42.55023317 -21.7822002 42.54562555 -25.31929207 42.53526306 C-27.015759 42.53259513 -28.71224603 42.53586788 -30.4086895 42.54518127 C-32.78138201 42.55534692 -35.15256625 42.53984686 -37.52514648 42.51757812 C-38.22605911 42.52567505 -38.92697174 42.53377197 -39.64912415 42.54211426 C-43.02890337 42.48338018 -44.73473585 42.20643341 -47.43617249 40.10412598 C-49.2325698 37.68707792 -49.51493583 36.54119842 -49.4375 33.5625 C-49.43621094 32.82128906 -49.43492187 32.08007812 -49.43359375 31.31640625 C-48.70481317 27.42301091 -46.92721326 24.74296877 -43.84619141 22.27416992 C-42.6113501 21.51003784 -42.6113501 21.51003784 -41.3515625 20.73046875 C-39.975448 19.86760254 -39.975448 19.86760254 -38.5715332 18.98730469 C-37.59917725 18.39336914 -36.62682129 17.79943359 -35.625 17.1875 C-34.63653076 16.57165039 -33.64806152 15.95580078 -32.62963867 15.32128906 C-29.75973515 13.53648932 -26.88121008 11.76647161 -24 10 C-22.58685945 9.12691706 -21.17404632 8.25330368 -19.76171875 7.37890625 C-17.63313245 6.06300579 -15.50041035 4.7552169 -13.36328125 3.453125 C-8.07663182 0.20249097 -6.18742582 -0.39285243 0 0 Z " fill="#3EACB8" transform="translate(312,177)"/>
<path d="M0 0 C1.96597829 1.1657276 3.86882759 2.396706 5.76855469 3.66748047 C7.18623596 4.58459167 8.60420847 5.50125282 10.02246094 6.41748047 C10.72000488 6.87380859 11.41754883 7.33013672 12.13623047 7.80029297 C14.96415006 9.63833752 17.83062767 11.4045487 20.70605469 13.16748047 C21.75148437 13.80943359 22.79691406 14.45138672 23.87402344 15.11279297 C29.94339034 18.81097352 36.04337385 22.45793046 42.14355469 26.10498047 C50.40488518 31.04409396 58.64174269 36.015626 66.83105469 41.07373047 C70.42101676 43.2751223 74.02946407 45.44354465 77.64355469 47.60498047 C82.59102305 50.56782408 87.53369248 53.5380657 92.45605469 56.54248047 C93.5040625 57.18056641 94.55207031 57.81865234 95.63183594 58.47607422 C98.14355469 60.10498047 98.14355469 60.10498047 100.14355469 62.10498047 C99.33917969 62.22873047 98.53480469 62.35248047 97.70605469 62.47998047 C96.43761719 62.78935547 96.43761719 62.78935547 95.14355469 63.10498047 C94.81355469 63.76498047 94.48355469 64.42498047 94.14355469 65.10498047 C92.82355469 65.10498047 91.50355469 65.10498047 90.14355469 65.10498047 C89.81355469 64.77498047 89.48355469 64.44498047 89.14355469 64.10498047 C89.14355469 65.09498047 89.14355469 66.08498047 89.14355469 67.10498047 C91.08364991 68.8103037 91.08364991 68.8103037 93.14355469 70.10498047 C92.81355469 70.76498047 92.48355469 71.42498047 92.14355469 72.10498047 C87.99176991 70.59947347 84.32910569 68.53153068 80.58105469 66.22998047 C79.23613758 65.41335189 77.89107811 64.59695772 76.54589844 63.78076172 C75.83159668 63.34586426 75.11729492 62.9109668 74.38134766 62.46289062 C71.30119705 60.59383131 68.20865023 58.74577022 65.11645508 56.89672852 C54.15957361 50.34250354 43.25428653 43.7046269 32.35205078 37.06005859 C26.99684902 33.79689806 21.64054165 30.5355681 16.28198242 27.27792358 C15.0877215 26.55163043 13.89370108 25.82494161 12.69995117 25.09780884 C11.01120939 24.06921649 9.32152971 23.04216448 7.63183594 22.01513672 C6.56143066 21.36432129 5.49102539 20.71350586 4.38818359 20.04296875 C2.15131848 18.70690891 -0.08742112 17.39727826 -2.35498047 16.11621094 C-3.45503418 15.49246582 -4.55508789 14.8687207 -5.68847656 14.22607422 C-6.68210205 13.67234131 -7.67572754 13.1186084 -8.69946289 12.5480957 C-9.41126709 12.07186768 -10.12307129 11.59563965 -10.85644531 11.10498047 C-10.85644531 10.44498047 -10.85644531 9.78498047 -10.85644531 9.10498047 C-11.51644531 9.10498047 -12.17644531 9.10498047 -12.85644531 9.10498047 C-13.7103861 6.11618771 -13.93345457 4.38734776 -13.10644531 1.35498047 C-10.37580317 -3.56017539 -4.43005982 -2.13579686 0 0 Z M90.14355469 61.10498047 C91.14355469 63.10498047 91.14355469 63.10498047 91.14355469 63.10498047 Z " fill="#49B1BC" transform="translate(200.8564453125,190.89501953125)"/>
<path d="M0 0 C2.52062079 1.05025866 3.74766114 1.64445648 5.25 3.9375 C5.6875 6.875 5.6875 6.875 5.25 9.9375 C1.77635539 14.34996748 -3.29055116 16.83600746 -8.0625 19.625 C-9.86590069 20.69268254 -11.66928596 21.76039112 -13.47265625 22.828125 C-14.36484863 23.35341797 -15.25704102 23.87871094 -16.17626953 24.41992188 C-19.79499443 26.55367202 -23.39862811 28.71213248 -27 30.875 C-27.61222412 31.24165771 -28.22444824 31.60831543 -28.85522461 31.98608398 C-31.96731889 33.85282309 -35.05916341 35.74580349 -38.125 37.6875 C-40.66089795 39.29140127 -43.23506432 40.76154934 -45.875 42.1875 C-49.74372797 44.30608913 -53.43571658 46.64989245 -57.125 49.0625 C-62.95378916 52.84091632 -68.84796844 56.50208068 -74.8125 60.0625 C-75.62187012 60.56023926 -76.43124023 61.05797852 -77.26513672 61.57080078 C-83.02868545 64.96715617 -83.02868545 64.96715617 -86.6953125 64.81640625 C-89.10895779 63.78395342 -90.30111012 63.1489635 -91.75 60.9375 C-92.375 58.125 -92.375 58.125 -91.75 54.9375 C-86.96882083 49.70097043 -80.90236691 46.61889405 -74.7578125 43.203125 C-70.37123284 40.75083682 -66.09179687 38.13386938 -61.8125 35.5 C-60.27611591 34.55586876 -58.73965798 33.61185766 -57.203125 32.66796875 C-56.08067383 31.97840088 -56.08067383 31.97840088 -54.93554688 31.27490234 C-51.65608063 29.2680976 -48.36121503 27.28746025 -45.0625 25.3125 C-44.45688232 24.94979004 -43.85126465 24.58708008 -43.22729492 24.21337891 C-41.40188728 23.12082054 -39.57602134 22.02903231 -37.75 20.9375 C-35.20774289 19.41765101 -32.66598137 17.89698101 -30.125 16.375 C-29.50665283 16.00463623 -28.88830566 15.63427246 -28.2512207 15.25268555 C-24.63043549 13.07945105 -21.02443267 10.88405964 -17.43212891 8.6640625 C-15.81127186 7.66284804 -14.18695027 6.66724894 -12.5625 5.671875 C-10.88488192 4.63734385 -9.21503326 3.58977162 -7.5625 2.515625 C-4.89278483 0.83554562 -3.19562824 -0.07262791 0 0 Z " fill="#48B1BB" transform="translate(199.75,238.0625)"/>
<path d="M0 0 C1.9375 1.0625 1.9375 1.0625 3 3 C3.4296875 6.3359375 3.4296875 6.3359375 3 10 C0.54296875 12.44140625 0.54296875 12.44140625 -2.8125 14.5625 C-3.70328247 15.13689819 -3.70328247 15.13689819 -4.61206055 15.72290039 C-8.94885904 18.47856839 -13.43047267 20.95102008 -17.98046875 23.3359375 C-22.50841651 25.83128775 -26.8438586 28.61880045 -31.21118164 31.3828125 C-35.46506313 34.0663526 -39.7493382 36.62215189 -44.203125 38.96484375 C-46.09594334 39.99350961 -46.09594334 39.99350961 -47.96875 41.5859375 C-51.18564418 43.82539075 -54.14060172 43.67838348 -58 44 C-58 43.01 -58 42.02 -58 41 C-60.90837355 40.83380723 -62.79238314 40.91176283 -65.5 42.0625 C-68.44928803 43.16848301 -70.01711531 42.85225277 -73 42 C-69.57100087 36.7006377 -64.58342384 33.71248136 -59 31 C-58.01 31 -57.02 31 -56 31 C-56 30.34 -56 29.68 -56 29 C-55.47140381 28.71012207 -54.94280762 28.42024414 -54.39819336 28.12158203 C-48.39094866 24.80809583 -42.46597023 21.36947096 -36.5625 17.875 C-35.61109131 17.31530518 -34.65968262 16.75561035 -33.67944336 16.17895508 C-29.01134931 13.42260485 -24.37905697 10.62895823 -19.8125 7.70703125 C-19.00868896 7.19736816 -18.20487793 6.68770508 -17.37670898 6.16259766 C-15.87539153 5.20564438 -14.3820949 4.23594378 -12.89868164 3.25146484 C-8.44648708 0.42465782 -5.43484753 -0.6265739 0 0 Z " fill="#349FAE" transform="translate(380,215)"/>
<path d="M0 0 C3.41242315 1.28804093 6.49128405 2.76839827 9.6171875 4.64453125 C10.47183594 5.15693359 11.32648438 5.66933594 12.20703125 6.19726562 C13.08746094 6.73029297 13.96789062 7.26332031 14.875 7.8125 C16.18404297 8.59463867 16.18404297 8.59463867 17.51953125 9.39257812 C31.45278012 17.78395583 31.45278012 17.78395583 33.125 21.5 C32.94883291 25.02334183 31.48818257 27.51181743 29 30 C22.32248394 29.80568075 17.80178287 26.87087842 12.25 23.375 C11.37053711 22.83391602 10.49107422 22.29283203 9.58496094 21.73535156 C7.04823949 20.16990155 4.5223775 18.58843295 2 17 C1.34128906 16.58717773 0.68257813 16.17435547 0.00390625 15.74902344 C-3.01274853 13.85605576 -6.01584728 11.9438059 -9 10 C-8.34 9.67 -7.68 9.34 -7 9 C-3.37151078 10.38542316 -0.23472506 11.84351662 3 14 C3.33 13.01 3.66 12.02 4 11 C4.99 11 5.98 11 7 11 C7 10.34 7 9.68 7 9 C6.34 8.34 5.68 7.68 5 7 C5 6.01 5 5.02 5 4 C2.525 3.01 2.525 3.01 0 2 C0 1.34 0 0.68 0 0 Z " fill="#44ACB9" transform="translate(327,269)"/>
<path d="M0 0 C-0.66 1.98 -1.32 3.96 -2 6 C-1.01 6 -0.02 6 1 6 C1 6.99 1 7.98 1 9 C0.01 9.66 -0.98 10.32 -2 11 C-2 11.66 -2 12.32 -2 13 C-3.43359375 14.11328125 -3.43359375 14.11328125 -5.4375 15.3125 C-6.16453125 15.74820312 -6.8915625 16.18390625 -7.640625 16.6328125 C-19.9753176 23.78039927 -19.9753176 23.78039927 -24 25 C-24.66 24.67 -25.32 24.34 -26 24 C-26.33 24.99 -26.66 25.98 -27 27 C-28.65 27 -30.3 27 -32 27 C-31.45275433 23.1692803 -29.71844729 21.63075544 -27 19 C-27 18.34 -27 17.68 -27 17 C-26.34 17 -25.68 17 -25 17 C-24.71125 16.2575 -24.4225 15.515 -24.125 14.75 C-23.75375 13.8425 -23.3825 12.935 -23 12 C-22.731875 11.29875 -22.46375 10.5975 -22.1875 9.875 C-20.51301384 7.23107448 -18.83663964 6.28938166 -16 5 C-14 5 -12 5 -10 5 C-8.39588754 3.64594139 -8.39588754 3.64594139 -7 2 C-2.68421053 0 -2.68421053 0 0 0 Z " fill="#43B0BA" transform="translate(168,260)"/>
<path d="M0 0 C4.48500344 1.59810467 8.34013097 3.89574313 12.375 6.375 C13.65319433 7.15438679 14.93183843 7.93303643 16.2109375 8.7109375 C17.14437988 9.27893066 17.14437988 9.27893066 18.09667969 9.85839844 C21.03679371 11.62186344 24.01627333 13.31153452 27 15 C24 17 24 17 22 17 C21.67 17.66 21.34 18.32 21 19 C19.68 19 18.36 19 17 19 C16.67 18.67 16.34 18.34 16 18 C16 18.99 16 19.98 16 21 C17.94009522 22.70532323 17.94009522 22.70532323 20 24 C19.67 24.66 19.34 25.32 19 26 C14.49260847 24.38774072 10.57433687 22.0938061 6.5 19.625 C5.84902344 19.23828125 5.19804687 18.8515625 4.52734375 18.453125 C0.78880746 16.20245063 -2.6527326 13.81942908 -6 11 C2.57142857 12 2.57142857 12 6 13 C6.99 11.35 7.98 9.7 9 8 C8.01 7.34 7.02 6.68 6 6 C6 5.34 6 4.68 6 4 C4.02 3.34 2.04 2.68 0 2 C0 1.34 0 0.68 0 0 Z M17 15 C18 17 18 17 18 17 Z " fill="#47AFBB" transform="translate(274,237)"/>
<path d="M0 0 C1.9375 1.0625 1.9375 1.0625 3 3 C3.46484375 6.3125 3.46484375 6.3125 3 10 C0.82629085 12.07880072 -0.86510111 13.41514572 -3.375 14.9375 C-3.97828125 15.33517578 -4.5815625 15.73285156 -5.203125 16.14257812 C-9.62942395 19 -9.62942395 19 -12 19 C-12 18.01 -12 17.02 -12 16 C-11.01 16 -10.02 16 -9 16 C-9 15.34 -9 14.68 -9 14 C-7.68 14 -6.36 14 -5 14 C-5 12.35 -5 10.7 -5 9 C-5.66 8.67 -6.32 8.34 -7 8 C-5.02253397 7.26919734 -3.01927511 6.60578253 -1 6 C-0.34 6.33 0.32 6.66 1 7 C0.67 6.34 0.34 5.68 0 5 C-2.31 5.33 -4.62 5.66 -7 6 C-7 5.34 -7 4.68 -7 4 C-7.66 4 -8.32 4 -9 4 C-9.33 4.66 -9.66 5.32 -10 6 C-12.32156597 6.40729228 -14.6568787 6.74438677 -17 7 C-7.54054054 -0.83783784 -7.54054054 -0.83783784 0 0 Z " fill="#45A3AE" transform="translate(380,215)"/>
<path d="M0 0 C0 3 0 3 -1 6 C-0.01 6 0.98 6 2 6 C2 6.66 2 7.32 2 8 C3.32 8.33 4.64 8.66 6 9 C4.35 9.33 2.7 9.66 1 10 C0.938125 10.763125 0.87625 11.52625 0.8125 12.3125 C0 15 0 15 -2.1875 16.8125 C-5.34410166 18.14528737 -7.60737019 18.2366951 -11 18 C-11 16.35 -11 14.7 -11 13 C-9.68 12.67 -8.36 12.34 -7 12 C-7 11.34 -7 10.68 -7 10 C-6.01 10 -5.02 10 -4 10 C-4.33 7.69 -4.66 5.38 -5 3 C-4.01 3 -3.02 3 -2 3 C-2 2.34 -2 1.68 -2 1 C-1.34 0.67 -0.68 0.34 0 0 Z " fill="#2C99A8" transform="translate(196,323)"/>
<path d="M0 0 C3.3 0.33 6.6 0.66 10 1 C10 1.66 10 2.32 10 3 C10.66 3.33 11.32 3.66 12 4 C10.02 4.99 10.02 4.99 8 6 C8.99 7.98 9.98 9.96 11 12 C10.34 12.66 9.68 13.32 9 14 C9 13.34 9 12.68 9 12 C8.030625 11.690625 7.06125 11.38125 6.0625 11.0625 C3 10 3 10 2 9 C1.01 9.495 1.01 9.495 0 10 C-0.66 9.01 -1.32 8.02 -2 7 C-2.99 6.67 -3.98 6.34 -5 6 C-5.6875 3.9375 -5.6875 3.9375 -6 2 C-4.02 2.99 -4.02 2.99 -2 4 C-1.34 2.68 -0.68 1.36 0 0 Z " fill="#3EADBB" transform="translate(204,199)"/>
<path d="M0 0 C0.33 0 0.66 0 1 0 C0.25 6.75 0.25 6.75 -2 9 C-4.44736205 9.20864734 -6.78259349 9.29366947 -9.23193359 9.29052734 C-9.97682541 9.29724457 -10.72171722 9.30396179 -11.48918152 9.31088257 C-13.95900082 9.32992671 -16.42854928 9.33379008 -18.8984375 9.3359375 C-20.6123567 9.34236145 -22.32627479 9.3490895 -24.04019165 9.35610962 C-27.63652082 9.36809876 -31.23275381 9.37178881 -34.82910156 9.37060547 C-39.43846826 9.37040229 -44.04721828 9.39769541 -48.65643883 9.43214989 C-52.19777256 9.45438464 -55.73895715 9.45844405 -59.28035355 9.45738602 C-60.97963205 9.4597475 -62.67891432 9.46860174 -64.37812424 9.48405075 C-66.75561444 9.50364044 -69.13176573 9.4979012 -71.50927734 9.48583984 C-72.21176102 9.49707886 -72.91424469 9.50831787 -73.63801575 9.51989746 C-77.12919421 9.47487441 -78.7304651 9.22172467 -81.46817017 6.96963501 C-81.97367401 6.31965546 -82.47917786 5.6696759 -83 5 C-82.67 4.34 -82.34 3.68 -82 3 C-78.28389177 3.64070832 -78.28389177 3.64070832 -76.7976532 5.52168274 C-74.01900937 7.806727 -71.59566482 7.35913961 -68.05004883 7.34057617 C-67.34735367 7.34101425 -66.64465851 7.34145233 -65.92066956 7.34190369 C-63.59917364 7.33981447 -61.27840091 7.31647819 -58.95703125 7.29296875 C-57.34706517 7.28737324 -55.73709398 7.28310293 -54.12712097 7.28010559 C-49.89045093 7.26865318 -45.6540896 7.23918279 -41.4175415 7.20599365 C-37.0941587 7.17530119 -32.77072599 7.16160203 -28.44726562 7.14648438 C-19.9647021 7.1143133 -11.48238946 7.06311238 -3 7 C-2.01 4.69 -1.02 2.38 0 0 Z " fill="#7CB7BD" transform="translate(346,210)"/>
<path d="M0 0 C3.625 0.375 3.625 0.375 7 1 C7 2.65 7 4.3 7 6 C7.99 6.33 8.98 6.66 10 7 C9.01 7.99 8.02 8.98 7 10 C7.33 10.66 7.66 11.32 8 12 C7.34 12 6.68 12 6 12 C6 12.66 6 13.32 6 14 C4.68 13.67 3.36 13.34 2 13 C2 12.01 2 11.02 2 10 C1.195625 9.87625 0.39125 9.7525 -0.4375 9.625 C-1.283125 9.41875 -2.12875 9.2125 -3 9 C-4 7 -4 7 -3.1875 4.5 C-2 2 -2 2 0 0 Z " fill="#3DABB9" transform="translate(234,215)"/>
<path d="M0 0 C3.99012371 0.55989303 6.5255052 1.75669768 9.8125 4.0625 C10.60269531 4.61035156 11.39289063 5.15820312 12.20703125 5.72265625 C12.79871094 6.14417969 13.39039063 6.56570312 14 7 C13.34 7.66 12.68 8.32 12 9 C10.68 9 9.36 9 8 9 C7.34 9.66 6.68 10.32 6 11 C5.01 11.33 4.02 11.66 3 12 C2.26676204 14.01508358 2.26676204 14.01508358 2 16 C0.35 15.01 -1.3 14.02 -3 13 C-2.01 12.67 -1.02 12.34 0 12 C0.12375 11.21625 0.2475 10.4325 0.375 9.625 C1 7 1 7 3 5 C2.2575 4.319375 2.2575 4.319375 1.5 3.625 C0 2 0 2 0 0 Z " fill="#4DB1BF" transform="translate(240,217)"/>
<path d="M0 0 C0.66 0.66 1.32 1.32 2 2 C2.99 2.33 3.98 2.66 5 3 C5.33 3.99 5.66 4.98 6 6 C5.071875 5.938125 4.14375 5.87625 3.1875 5.8125 C1.6096875 5.9053125 1.6096875 5.9053125 0 6 C-0.45375 6.515625 -0.9075 7.03125 -1.375 7.5625 C-3 9 -3 9 -4.95703125 8.9765625 C-6.98056493 8.71431821 -8.99193214 8.3621106 -11 8 C-11 6.68 -11 5.36 -11 4 C-7.44132039 0.63368145 -4.9213784 -1.64045947 0 0 Z " fill="#3CABB7" transform="translate(254,225)"/>
<path d="M0 0 C0 3.90432869 -0.68373308 6.38026598 -2 10 C-1.195625 10.2475 -0.39125 10.495 0.4375 10.75 C3 12 3 12 3.8125 14.125 C3.874375 14.74375 3.93625 15.3625 4 16 C0.08158173 14.69386058 -2.32640809 13.16870152 -5 10 C-5 9.34 -5 8.68 -5 8 C-5.66 8 -6.32 8 -7 8 C-7 7.34 -7 6.68 -7 6 C-7.99 5.67 -8.98 5.34 -10 5 C-9.34 5 -8.68 5 -8 5 C-7.87625 4.360625 -7.7525 3.72125 -7.625 3.0625 C-7.41875 2.381875 -7.2125 1.70125 -7 1 C-4.53721199 -0.231394 -2.7204945 -0.07159196 0 0 Z " fill="#3EACBB" transform="translate(233,213)"/>
<path d="M0 0 C0.66 0.33 1.32 0.66 2 1 C1.505 1.763125 1.01 2.52625 0.5 3.3125 C-1.24368308 5.92363751 -1.24368308 5.92363751 -1 9 C2.465 10.485 2.465 10.485 6 12 C4.68 13.32 3.36 14.64 2 16 C-0.47408577 14.76295712 -1.45780694 13.32376186 -3.125 11.125 C-3.66382813 10.42632812 -4.20265625 9.72765625 -4.7578125 9.0078125 C-6 7 -6 7 -6 4 C-3 1.8125 -3 1.8125 0 0 Z " fill="#4EB4BD" transform="translate(286,188)"/>
<path d="M0 0 C16.83 0 33.66 0 51 0 C50.67 0.66 50.34 1.32 50 2 C47.9375 2.625 47.9375 2.625 46 3 C46 2.34 46 1.68 46 1 C30.82 1 15.64 1 0 1 C0 0.67 0 0.34 0 0 Z " fill="#41A5AF" transform="translate(290,207)"/>
<path d="M0 0 C2.62655933 0.35494045 4.57968261 0.72461964 6.8125 2.1875 C8.60972017 4.93062552 8.45774125 6.79581126 8 10 C5.50108551 13.33188599 2.91020436 14.69659855 -1 16 C-1.33 15.01 -1.66 14.02 -2 13 C-0.35 13 1.3 13 3 13 C3 11.35 3 9.7 3 8 C3.99 8 4.98 8 6 8 C6 6.68 6 5.36 6 4 C5.01 4 4.02 4 3 4 C2.67 4.66 2.34 5.32 2 6 C2.33 4.35 2.66 2.7 3 1 C2.01 0.67 1.02 0.34 0 0 Z " fill="#6EBBC2" transform="translate(197,238)"/>
<path d="M0 0 C0.6875 2.0625 0.6875 2.0625 1 4 C-0.95467752 5.33898399 -2.9133579 6.67129047 -4.875 8 C-5.96554687 8.7425 -7.05609375 9.485 -8.1796875 10.25 C-11 12 -11 12 -13 12 C-13 11.01 -13 10.02 -13 9 C-12.01 9 -11.02 9 -10 9 C-10 8.34 -10 7.68 -10 7 C-8.68 7 -7.36 7 -6 7 C-6 5.35 -6 3.7 -6 2 C-6.66 1.67 -7.32 1.34 -8 1 C-3.375 -1.125 -3.375 -1.125 0 0 Z " fill="#399EAB" transform="translate(381,222)"/>
<path d="M0 0 C4.7081815 0.63624074 4.7081815 0.63624074 6.2121582 2.51098633 C8.94539448 4.78737688 11.8877783 4.47992966 15.29296875 4.51171875 C15.99899734 4.52966995 16.70502594 4.54762115 17.43244934 4.56611633 C19.68407241 4.62023178 21.93548343 4.65411722 24.1875 4.6875 C25.71552431 4.72067219 27.24352063 4.75516177 28.77148438 4.79101562 C32.51416989 4.87595825 36.25679241 4.94276248 40 5 C40 5.33 40 5.66 40 6 C34.94634708 6.09897181 29.89325976 6.17151603 24.83886719 6.21972656 C23.12001721 6.23982628 21.40123548 6.26711089 19.68261719 6.30175781 C17.21011511 6.35035034 14.7385179 6.37298435 12.265625 6.390625 C11.11540863 6.42159271 11.11540863 6.42159271 9.94195557 6.45318604 C6.35329994 6.45469096 4.38867579 6.29335445 1.48339844 4.10058594 C0 2 0 2 0 0 Z " fill="#6AADB5" transform="translate(263,213)"/>
<path d="M0 0 C2 2 2 2 2.1953125 3.9453125 C2.13020833 5.96354167 2.06510417 7.98177083 2 10 C1.34 10 0.68 10 0 10 C0 10.66 0 11.32 0 12 C-1.65 12.66 -3.3 13.32 -5 14 C-4.67 12.35 -4.34 10.7 -4 9 C-3.01 9 -2.02 9 -1 9 C-0.67 6.69 -0.34 4.38 0 2 C-4.29 2.66 -8.58 3.32 -13 4 C-7.26347424 -0.58922061 -6.7123795 -0.66023405 0 0 Z " fill="#6EB5BC" transform="translate(312,177)"/>
<path d="M0 0 C-0.25 1.875 -0.25 1.875 -1 4 C-3.93995019 6.02755186 -5.27704003 6 -9 6 C-9.12375 5.195625 -9.2475 4.39125 -9.375 3.5625 C-9.684375 2.2940625 -9.684375 2.2940625 -10 1 C-10.66 0.67 -11.32 0.34 -12 0 C-7.22144261 -2.04795317 -4.77855739 -2.04795317 0 0 Z " fill="#249BA9" transform="translate(355,234)"/>
<path d="M0 0 C-0.8125 2.9375 -0.8125 2.9375 -2 6 C-5 7 -5 7 -6.8125 6.5 C-9.73260916 5.83254648 -12.09429997 6.40565227 -15 7 C-11.19676155 2.52560182 -5.96922975 -0.723543 0 0 Z " fill="#5FB7BC" transform="translate(200,239)"/>
<path d="M0 0 C4.47959418 1.14185734 8.14522751 2.43015167 12 5 C12.33 4.01 12.66 3.02 13 2 C13.268125 2.61875 13.53625 3.2375 13.8125 3.875 C14.95556848 6.2995233 14.95556848 6.2995233 18 8 C18 8.66 18 9.32 18 10 C13.40297887 9.44593342 10.01892099 7.44322498 6.1875 5 C5.59001953 4.63132812 4.99253906 4.26265625 4.37695312 3.8828125 C2.89634966 2.9555317 1.4450798 1.98172332 0 1 C0 0.67 0 0.34 0 0 Z " fill="#56AFB9" transform="translate(318,278)"/>
<path d="M0 0 C2.125 0.375 2.125 0.375 4 1 C4 3.64 4 6.28 4 9 C3.34 9 2.68 9 2 9 C2 9.66 2 10.32 2 11 C0.68 11 -0.64 11 -2 11 C-2 9.68 -2 8.36 -2 7 C-1.01 7 -0.02 7 1 7 C1 5.68 1 4.36 1 3 C0.01 2.67 -0.98 2.34 -2 2 C-1.34 1.34 -0.68 0.68 0 0 Z " fill="#36A9B3" transform="translate(353,287)"/>
<path d="M0 0 C2.78211944 0.37596209 4.5879284 0.67318459 6.8125 2.4375 C8 4 8 4 8 6 C5.69 6.33 3.38 6.66 1 7 C1 6.34 1 5.68 1 5 C0.34 5 -0.32 5 -1 5 C-0.67 3.35 -0.34 1.7 0 0 Z " fill="#269BAD" transform="translate(225,308)"/>
<path d="M0 0 C2 2 2 2 2 5 C3.65 4.67 5.3 4.34 7 4 C7.33 4.99 7.66 5.98 8 7 C8.66 7 9.32 7 10 7 C10 7.66 10 8.32 10 9 C7.8125 9.75 7.8125 9.75 5 10 C2.1875 8.4375 2.1875 8.4375 0 6 C-0.3125 2.75 -0.3125 2.75 0 0 Z " fill="#67BEC3" transform="translate(108,293)"/>
<path d="M0 0 C0.66 0.33 1.32 0.66 2 1 C1.67 1.99 1.34 2.98 1 4 C1.99 5.485 1.99 5.485 3 7 C2.625 9.6875 2.625 9.6875 2 12 C0.68 11.67 -0.64 11.34 -2 11 C-2 10.01 -2 9.02 -2 8 C-2.33 7.34 -2.66 6.68 -3 6 C-2.06553465 3.96855359 -1.06775224 1.96466413 0 0 Z " fill="#2998A9" transform="translate(252,289)"/>
<path d="M0 0 C0.66 0.33 1.32 0.66 2 1 C2 1.66 2 2.32 2 3 C1.34 3 0.68 3 0 3 C-0.66 4.65 -1.32 6.3 -2 8 C-4.31 7.67 -6.62 7.34 -9 7 C-6.25604436 4.05278838 -3.61662784 1.80831392 0 0 Z " fill="#62BABF" transform="translate(145,269)"/>
<path d="M0 0 C3.69876091 1.37287342 6.9514476 3.06355453 10.3125 5.125 C11.19550781 5.66382813 12.07851563 6.20265625 12.98828125 6.7578125 C13.65214844 7.16773438 14.31601562 7.57765625 15 8 C11.98968256 8.93423645 11.13349732 9.04449911 8 8 C8 7.34 8 6.68 8 6 C7.01 6 6.02 6 5 6 C5 5.34 5 4.68 5 4 C2.525 3.01 2.525 3.01 0 2 C0 1.34 0 0.68 0 0 Z " fill="#6CB8BE" transform="translate(327,269)"/>
<path d="M0 0 C-0.515625 0.5775 -1.03125 1.155 -1.5625 1.75 C-3.26505193 3.87827523 -3.26505193 3.87827523 -2.6875 6.25 C-2.3471875 7.11625 -2.3471875 7.11625 -2 8 C-3.32 8 -4.64 8 -6 8 C-6.33 5.69 -6.66 3.38 -7 1 C-4.53721199 -0.231394 -2.7204945 -0.07159196 0 0 Z " fill="#2B94A3" transform="translate(176,338)"/>
<path d="M0 0 C0.66 0.33 1.32 0.66 2 1 C1 2 0 3 -1 4 C-1.495 4.515625 -1.99 5.03125 -2.5 5.5625 C-4.46049602 7.44130868 -6.57678258 8.78839129 -9 10 C-9 9.34 -9 8.68 -9 8 C-10.32 8.33 -11.64 8.66 -13 9 C-11.54038954 6.08077908 -9.36103252 5.43806731 -6.5 3.9375 C-3.0318363 2.28029466 -3.0318363 2.28029466 0 0 Z " fill="#74BEC3" transform="translate(130,278)"/>
<path d="M0 0 C3.67694648 1.37140166 6.95318589 3.03695801 10.3125 5.0625 C11.19550781 5.58972656 12.07851563 6.11695313 12.98828125 6.66015625 C13.65214844 7.10230469 14.31601562 7.54445312 15 8 C15 8.33 15 8.66 15 9 C13.35 9 11.7 9 10 9 C10 8.34 10 7.68 10 7 C8.68 6.67 7.36 6.34 6 6 C6 5.34 6 4.68 6 4 C4.02 3.34 2.04 2.68 0 2 C0 1.34 0 0.68 0 0 Z " fill="#82C6C8" transform="translate(274,237)"/>
<path d="M0 0 C4.77609498 1.64178265 8.79382904 4.26546702 13 7 C9.6930937 8.1023021 8.30707339 7.78325422 5 7 C4.67 7 4.34 7 4 7 C3.896875 6.360625 3.79375 5.72125 3.6875 5.0625 C3.460625 4.381875 3.23375 3.70125 3 3 C2.01 2.67 1.02 2.34 0 2 C0 1.34 0 0.68 0 0 Z " fill="#6EBCBF" transform="translate(200,192)"/>
<path d="M0 0 C0 0.66 0 1.32 0 2 C-3.02734375 2.24414062 -3.02734375 2.24414062 -6.0546875 2.48828125 C-8.39519216 2.87393036 -8.39519216 2.87393036 -10 6 C-13.625 6.6875 -13.625 6.6875 -17 7 C-11.17763533 2.17575499 -7.78776819 -0.45810401 0 0 Z " fill="#68B0B6" transform="translate(380,215)"/>
<path d="M0 0 C3 2 3 2 3.875 4.3125 C4.03486723 7.74964547 2.98450394 9.25222531 1 12 C0 13 0 13 -2.5625 13.0625 C-3.366875 13.041875 -4.17125 13.02125 -5 13 C-3.68 12.67 -2.36 12.34 -1 12 C-1 11.34 -1 10.68 -1 10 C-0.34 10 0.32 10 1 10 C0.67 6.7 0.34 3.4 0 0 Z " fill="#7FC0C6" transform="translate(356,286)"/>
<path d="M0 0 C0.66 0.33 1.32 0.66 2 1 C2 1.66 2 2.32 2 3 C2.804375 3.2475 3.60875 3.495 4.4375 3.75 C7 5 7 5 7.8125 7.125 C7.874375 7.74375 7.93625 8.3625 8 9 C4.40608886 7.66511872 1.24509304 6.03977277 -2 4 C-1.34 2.68 -0.68 1.36 0 0 Z " fill="#68BCC3" transform="translate(206,206)"/>
<path d="M0 0 C0 0.66 0 1.32 0 2 C-0.99 2 -1.98 2 -3 2 C-2.649375 2.78375 -2.29875 3.5675 -1.9375 4.375 C-1.628125 5.24125 -1.31875 6.1075 -1 7 C-1.33 7.66 -1.66 8.32 -2 9 C-2.99 9 -3.98 9 -5 9 C-5.144375 8.360625 -5.28875 7.72125 -5.4375 7.0625 C-5.81007181 5.02454854 -5.81007181 5.02454854 -7 4 C-3.17391304 0 -3.17391304 0 0 0 Z " fill="#50ABB7" transform="translate(194,324)"/>
<path d="M0 0 C0.66 0.33 1.32 0.66 2 1 C2 2.32 2 3.64 2 5 C1.01 5 0.02 5 -1 5 C-1.33 6.32 -1.66 7.64 -2 9 C-2.185625 8.071875 -2.185625 8.071875 -2.375 7.125 C-2.87197356 4.80879168 -2.87197356 4.80879168 -5 3 C-2.625 1.4375 -2.625 1.4375 0 0 Z " fill="#51AEB9" transform="translate(268,278)"/>
<path d="M0 0 C-0.33 0.99 -0.66 1.98 -1 3 C-3.8125 3.625 -3.8125 3.625 -7 4 C-7.99 3.34 -8.98 2.68 -10 2 C-6.3558226 -0.4294516 -4.28758728 -0.16179575 0 0 Z " fill="#2DA2AD" transform="translate(317,254)"/>
<path d="M0 0 C0.66 0.33 1.32 0.66 2 1 C-1.3995585 5.73509934 -1.3995585 5.73509934 -4.125 6.9375 C-4.74375 6.958125 -5.3625 6.97875 -6 7 C-6.66 6.34 -7.32 5.68 -8 5 C-6.71475739 4.13619741 -5.42157581 3.28419631 -4.125 2.4375 C-3.04605469 1.72400391 -3.04605469 1.72400391 -1.9453125 0.99609375 C-1.30335938 0.66738281 -0.66140625 0.33867187 0 0 Z " fill="#5CACB2" transform="translate(185,328)"/>
<path d="M0 0 C1.32 0.33 2.64 0.66 4 1 C2.54462432 1.83848804 1.08559627 2.67063934 -0.375 3.5 C-1.59316406 4.19609375 -1.59316406 4.19609375 -2.8359375 4.90625 C-5 6 -5 6 -7 6 C-6.67 4.68 -6.34 3.36 -6 2 C-4.02 2 -2.04 2 0 2 C0 1.34 0 0.68 0 0 Z " fill="#7CC4C8" transform="translate(184,259)"/>
<path d="M0 0 C2.64 0.33 5.28 0.66 8 1 C8 1.66 8 2.32 8 3 C8.66 3 9.32 3 10 3 C10 3.99 10 4.98 10 6 C6.00499382 4.6302836 3.19990508 2.74277578 0 0 Z " fill="#61B5BB" transform="translate(268,248)"/>
<path d="M0 0 C4.31392226 0.4793247 6.16569547 1.7457985 9 5 C6.36 4.67 3.72 4.34 1 4 C0.67 2.68 0.34 1.36 0 0 Z " fill="#6EBABE" transform="translate(240,217)"/>
<path d="M0 0 C3.67420866 0.30618405 4.78135513 0.75771784 7.3125 3.5625 C8.1478125 4.7690625 8.1478125 4.7690625 9 6 C6.75 6.25 6.75 6.25 4 6 C1.6875 4.125 1.6875 4.125 0 2 C0 1.34 0 0.68 0 0 Z " fill="#67B9BE" transform="translate(263,213)"/>
<path d="M0 0 C0 2.62113708 -0.31292445 4.50935112 -1 7 C-2.98 7.33 -4.96 7.66 -7 8 C-6.21366078 6.85050412 -5.42073742 5.70551011 -4.625 4.5625 C-4.18414062 3.92441406 -3.74328125 3.28632813 -3.2890625 2.62890625 C-2 1 -2 1 0 0 Z " fill="#2795A3" transform="translate(189,327)"/>
<path d="M0 0 C2.37851717 2.37851717 2 2.75638271 2 6 C-0.64 6 -3.28 6 -6 6 C-2.25 1.125 -2.25 1.125 0 0 Z " fill="#2EA0B1" transform="translate(294,264)"/>
<path d="M0 0 C0.66 0.33 1.32 0.66 2 1 C4.00800456 0.71887936 6.01014051 0.38932033 8 0 C6.4375 2.0625 6.4375 2.0625 4 4 C0.25 3.75 0.25 3.75 -3 3 C-2.01 2.01 -1.02 1.02 0 0 Z " fill="#3B9CA7" transform="translate(348,240)"/>
<path d="M0 0 C2.475 0.495 2.475 0.495 5 1 C5 2.98 5 4.96 5 7 C4.01 6.67 3.02 6.34 2 6 C2 4.68 2 3.36 2 2 C1.34 2 0.68 2 0 2 C0 1.34 0 0.68 0 0 Z " fill="#56AEB3" transform="translate(341,207)"/>
<path d="M0 0 C3.79303725 1.00193437 6.71536341 1.81024227 10 4 C10 4.66 10 5.32 10 6 C5.56909529 4.79157144 3.01887244 3.48331435 0 0 Z " fill="#70BCC2" transform="translate(318,278)"/>
<path d="M0 0 C0.66 0.33 1.32 0.66 2 1 C-1.32307692 5.8 -1.32307692 5.8 -4.75 6.8125 C-5.4925 6.874375 -6.235 6.93625 -7 7 C-5.66667905 3.00003714 -3.5042173 2.16217663 0 0 Z " fill="#6CBAC2" transform="translate(286,188)"/>
<path d="M0 0 C1.65 0 3.3 0 5 0 C1.80009492 2.74277578 -1.00499382 4.6302836 -5 6 C-5 5.34 -5 4.68 -5 4 C-4.34 4 -3.68 4 -3 4 C-3 3.34 -3 2.68 -3 2 C-2.01 2 -1.02 2 0 2 C0 1.34 0 0.68 0 0 Z " fill="#6EB5BA" transform="translate(271,289)"/>
<path d="M0 0 C2 1.3125 2 1.3125 4 3 C4 3.99 4 4.98 4 6 C2.35 6 0.7 6 -1 6 C-0.67 4.02 -0.34 2.04 0 0 Z " fill="#2D9EAA" transform="translate(278,280)"/>
<path d="M0 0 C-0.625 1.9375 -0.625 1.9375 -2 4 C-5.125 4.75 -5.125 4.75 -8 5 C-7 2 -7 2 -5.125 0.8125 C-3 0 -3 0 0 0 Z " fill="#5CB0B6" transform="translate(182,249)"/>
<path d="M0 0 C0.66 0.33 1.32 0.66 2 1 C1.67 1.66 1.34 2.32 1 3 C0.34 3 -0.32 3 -1 3 C-1 3.66 -1 4.32 -1 5 C-3.31 5.33 -5.62 5.66 -8 6 C-5.38485683 3.87961365 -2.80362384 1.86908256 0 0 Z " fill="#63B1B5" transform="translate(358,224)"/>
<path d="M0 0 C0.66 0.33 1.32 0.66 2 1 C1.01 1.33 0.02 1.66 -1 2 C-1 2.99 -1 3.98 -1 5 C0.65 5 2.3 5 4 5 C4 5.33 4 5.66 4 6 C1.36 6 -1.28 6 -4 6 C-3.67 4.35 -3.34 2.7 -3 1 C-2.01 0.67 -1.02 0.34 0 0 Z " fill="#44A8AF" transform="translate(285,202)"/>
<path d="M0 0 C0.99 0 1.98 0 3 0 C3 0.66 3 1.32 3 2 C3.9590625 2.1546875 3.9590625 2.1546875 4.9375 2.3125 C5.618125 2.539375 6.29875 2.76625 7 3 C7.33 3.99 7.66 4.98 8 6 C5.0280615 4.87548273 2.66559313 3.77706209 0 2 C0 1.34 0 0.68 0 0 Z " fill="#70BBC4" transform="translate(196,203)"/>
<path d="M0 0 C-2.3125 2.0625 -2.3125 2.0625 -5 4 C-5.99 3.67 -6.98 3.34 -8 3 C-8 2.01 -8 1.02 -8 0 C-5.13822943 -1.43088528 -3.06624227 -0.59991697 0 0 Z " fill="#5CB3BC" transform="translate(299,196)"/>
<path d="M0 0 C3.71599191 -0.20086443 4.77208445 -0.1519437 8 2 C8 2.99 8 3.98 8 5 C4.62496331 3.8141763 2.35277269 2.72426311 0 0 Z " fill="#60B2BA" transform="translate(343,293)"/>
<path d="M0 0 C-0.33 1.32 -0.66 2.64 -1 4 C-3.31 4.33 -5.62 4.66 -8 5 C-3.16129032 0 -3.16129032 0 0 0 Z " fill="#74BFC3" transform="translate(172,254)"/>
<path d="M0 0 C0 1.32 0 2.64 0 4 C-3 5 -3 5 -5.1875 4.0625 C-5.785625 3.711875 -6.38375 3.36125 -7 3 C-2.25 0 -2.25 0 0 0 Z " fill="#5AB1BB" transform="translate(317,250)"/>
<path d="M0 0 C0.66 0.33 1.32 0.66 2 1 C1.34 2.65 0.68 4.3 0 6 C-0.99 6 -1.98 6 -3 6 C-3 5.34 -3 4.68 -3 4 C-3.66 3.67 -4.32 3.34 -5 3 C-2.625 1.4375 -2.625 1.4375 0 0 Z " fill="#52AAB3" transform="translate(250,289)"/>
<path d="M0 0 C4.43090471 1.20842856 6.98112756 2.51668565 10 6 C8.35 5.67 6.7 5.34 5 5 C5 4.34 5 3.68 5 3 C3.35 2.67 1.7 2.34 0 2 C0 1.34 0 0.68 0 0 Z " fill="#8ACACE" transform="translate(254,225)"/>
<path d="M0 0 C2.31 0.33 4.62 0.66 7 1 C7.33 2.32 7.66 3.64 8 5 C4.62496331 3.8141763 2.35277269 2.72426311 0 0 Z " fill="#6EBDC7" transform="translate(229,224)"/>
<path d="M0 0 C3.77545388 1.09068668 6.47043472 1.9083091 9 5 C7.02 5 5.04 5 3 5 C3 4.34 3 3.68 3 3 C2.01 2.67 1.02 2.34 0 2 C0 1.34 0 0.68 0 0 Z " fill="#79BFC4" transform="translate(224,207)"/>
<path d="M0 0 C0.66 0 1.32 0 2 0 C2.268125 0.61875 2.53625 1.2375 2.8125 1.875 C3.95556848 4.2995233 3.95556848 4.2995233 7 6 C7 6.66 7 7.32 7 8 C5.68 7.67 4.36 7.34 3 7 C3 6.34 3 5.68 3 5 C2.34 5 1.68 5 1 5 C0.67 3.35 0.34 1.7 0 0 Z " fill="#74BEC2" transform="translate(187,195)"/>
<path d="M0 0 C-3.96 1.98 -3.96 1.98 -8 4 C-8 2.68 -8 1.36 -8 0 C-4.63458162 -1.08174162 -3.70152678 -0.92538169 0 0 Z " fill="#6EB4BD" transform="translate(205,333)"/>
<path d="M0 0 C0 0.66 0 1.32 0 2 C-1.98 2.99 -3.96 3.98 -6 5 C-6 3.68 -6 2.36 -6 1 C-4 0 -4 0 0 0 Z " fill="#62AFB7" transform="translate(233,314)"/>
<path d="M0 0 C-2.8125 1.5625 -2.8125 1.5625 -6 3 C-6.99 2.67 -7.98 2.34 -9 2 C-9 1.34 -9 0.68 -9 0 C-5.62182575 -0.84454356 -3.32534757 -1.10844919 0 0 Z " fill="#55A8B4" transform="translate(258,301)"/>
<path d="M0 0 C0.66 0.33 1.32 0.66 2 1 C1.1875 2.9375 1.1875 2.9375 0 5 C-0.99 5.33 -1.98 5.66 -3 6 C-3.33 5.34 -3.66 4.68 -4 4 C-2.68 2.68 -1.36 1.36 0 0 Z " fill="#2995A3" transform="translate(239,297)"/>
<path d="M0 0 C2.31 0 4.62 0 7 0 C4.6875 2.0625 4.6875 2.0625 2 4 C1.01 3.67 0.02 3.34 -1 3 C-0.67 2.01 -0.34 1.02 0 0 Z " fill="#6FC0C3" transform="translate(156,274)"/>
<path d="M0 0 C2.875 -0.125 2.875 -0.125 6 0 C6.66 0.66 7.32 1.32 8 2 C7.67 2.66 7.34 3.32 7 4 C4.08482708 2.92598892 2.22189824 2.22189824 0 0 Z " fill="#62B6C2" transform="translate(286,259)"/>
<path d="M0 0 C0.99 0.66 1.98 1.32 3 2 C2.34 2 1.68 2 1 2 C1.33 2.99 1.66 3.98 2 5 C0.02 5.99 0.02 5.99 -2 7 C-2 3.89448334 -1.4606285 2.64738916 0 0 Z " fill="#4FB4BF" transform="translate(268,233)"/>
<path d="M0 0 C1.32 0.33 2.64 0.66 4 1 C3.67 2.65 3.34 4.3 3 6 C2.01 6 1.02 6 0 6 C0 4.02 0 2.04 0 0 Z " fill="#2697A6" transform="translate(230,302)"/>
<path d="M0 0 C1.32 0.33 2.64 0.66 4 1 C2.35 2.32 0.7 3.64 -1 5 C-1.99 4.34 -2.98 3.68 -4 3 C-3.01 3 -2.02 3 -1 3 C-0.67 2.01 -0.34 1.02 0 0 Z " fill="#2C9AA8" transform="translate(280,272)"/>
<path d="M0 0 C0.66 0.33 1.32 0.66 2 1 C1.34 2.32 0.68 3.64 0 5 C-1.65 4.67 -3.3 4.34 -5 4 C-3.35 2.68 -1.7 1.36 0 0 Z " fill="#78C1C7" transform="translate(158,261)"/>
<path d="M0 0 C-3.06117568 2.62386487 -3.73173127 3 -8 3 C-8 2.34 -8 1.68 -8 1 C-4.93251126 -0.86240388 -3.40254489 -1.2151946 0 0 Z " fill="#5BAFBB" transform="translate(327,259)"/>
<path d="M0 0 C2.475 0.99 2.475 0.99 5 2 C4.01 3.485 4.01 3.485 3 5 C2.01 4.67 1.02 4.34 0 4 C0 2.68 0 1.36 0 0 Z " fill="#33A8B5" transform="translate(289,254)"/>
<path d="M0 0 C4.75 0.875 4.75 0.875 7 2 C7 2.66 7 3.32 7 4 C5.68 4 4.36 4 3 4 C2.67 4.66 2.34 5.32 2 6 C2.33 4.35 2.66 2.7 3 1 C2.01 0.67 1.02 0.34 0 0 Z " fill="#87CBCF" transform="translate(197,238)"/>
<path d="M0 0 C1.98 0 3.96 0 6 0 C1.25 4 1.25 4 -1 4 C-0.67 2.68 -0.34 1.36 0 0 Z " fill="#51ABB4" transform="translate(358,236)"/>
<path d="M0 0 C1.32 0.33 2.64 0.66 4 1 C-0.75 5 -0.75 5 -3 5 C-3 4.01 -3 3.02 -3 2 C-2.01 2 -1.02 2 0 2 C0 1.34 0 0.68 0 0 Z " fill="#6AB2BB" transform="translate(371,229)"/>
<path d="M0 0 C2.1875 0.3125 2.1875 0.3125 4 1 C4 1.99 4 2.98 4 4 C1.69 3.67 -0.62 3.34 -3 3 C-1.75 1.4375 -1.75 1.4375 0 0 Z " fill="#5CB5C0" transform="translate(291,185)"/>
</svg>
